<svg xmlns="http://www.w3.org/2000/svg" width="207" height="41" fill="none"><path fill="#9C9C9C" fill-rule="evenodd" d="M12.945 36.148a.868.868 0 0 1-.685-.344 2.435 2.435 0 0 1-.45-1.029 13.954 13.954 0 0 1-.25-1.44c-.07-.623-.104-1.25-.106-1.877-.02-1.377-.016-2.756.014-4.133.018-.846.026-1.506.026-1.982V9.59c0-.776.005-1.366.014-1.771.009-.405.04-.863.091-1.374.03-.38.096-.756.199-1.123.1-.283.233-.553.395-.806.15-.265.368-.484.633-.634.308-.154.625-.29.949-.41.418-.156.85-.266 1.291-.33.574-.084 1.15-.155 1.728-.212V1.476l-.45-.45H.422L0 1.476v1.242c2.672.159 4.166.917 4.482 2.273a20.91 20.91 0 0 1 .264 3.462V32.58a24.226 24.226 0 0 1-.159 3.753 1.73 1.73 0 0 1-.316.528 9.864 9.864 0 0 1-.645.7c-.18.173-.35.353-.514.541v.926c13.587 0 21.997.087 25.23.264l1.135-3.831-.712-.503c-5.25.66-10.53 1.058-15.819 1.19h-.001Zm25.256-11.046a.723.723 0 0 1-.158.026c-.263 0-.395-.096-.395-.29.001-.876.067-1.75.198-2.617.148-.944.395-1.87.738-2.76a10.49 10.49 0 0 1 1.347-2.537 6.33 6.33 0 0 1 5.128-2.524 4.138 4.138 0 0 1 3.664 1.824 7.255 7.255 0 0 1 1.24 4.174 1.338 1.338 0 0 1-.884 1.242 43.04 43.04 0 0 1-4.416 1.508c-2.107.62-4.207 1.263-6.3 1.93a.74.74 0 0 0-.162.024Zm15.66 8.245c-3.165 1.92-5.898 2.88-8.198 2.88a7.496 7.496 0 0 1-4.377-1.294 7.837 7.837 0 0 1-2.755-3.238 9.993 9.993 0 0 1-.883-4.188c11.495-3.576 17.295-5.365 17.4-5.365a1.948 1.948 0 0 0 1.555-2.008 7.538 7.538 0 0 0-.883-3.726 6.446 6.446 0 0 0-2.386-2.47 11.553 11.553 0 0 0-3.256-1.296 16.63 16.63 0 0 0-3.785-.41 15.963 15.963 0 0 0-6.642 1.336 12.734 12.734 0 0 0-4.758 3.568 16.224 16.224 0 0 0-2.755 5.02 17.957 17.957 0 0 0-.95 5.828c0 4.07 1.1 7.117 3.296 9.143 1.986 1.85 4.79 2.774 8.41 2.774a13.571 13.571 0 0 0 5.972-1.453 46.087 46.087 0 0 0 6.393-3.86l-.577-1.028-.821-.213ZM89.37 5.483a7.717 7.717 0 0 0-3.876-4.202A16.364 16.364 0 0 0 78.508.013a20.517 20.517 0 0 0-5.18.634 15.765 15.765 0 0 0-4.456 1.903A9.155 9.155 0 0 0 65.669 6a10.305 10.305 0 0 0-1.187 5.007c0 1.247.302 2.476.883 3.58a10.004 10.004 0 0 0 2.215 2.895 26.901 26.901 0 0 0 3.11 2.364 36.243 36.243 0 0 0 3.402 2.009c1.1.565 2.181 1.164 3.243 1.797.88.498 1.706 1.087 2.465 1.758 1.95 1.814 2.926 3.54 2.926 5.18a6.372 6.372 0 0 1-2.03 4.637 6.67 6.67 0 0 1-4.877 2.022 6.96 6.96 0 0 1-5.576-2.538 8.705 8.705 0 0 1-2.148-5.788l-1.027-.37-5.246 5.893a12.281 12.281 0 0 0 4.72 4.056 13.845 13.845 0 0 0 6.195 1.415 19.602 19.602 0 0 0 5.774-.9 21.309 21.309 0 0 0 5.326-2.445 12.873 12.873 0 0 0 3.914-3.91 9.172 9.172 0 0 0 1.516-5.034 7.808 7.808 0 0 0-.5-2.814 9.002 9.002 0 0 0-1.292-2.326 11.544 11.544 0 0 0-2.202-2.075 28.183 28.183 0 0 0-2.808-1.864 96.541 96.541 0 0 0-3.532-1.916c-.83-.403-1.648-.83-2.452-1.282-.76-.445-1.5-.923-2.218-1.435a11.112 11.112 0 0 1-2.002-1.76 8.147 8.147 0 0 1-1.266-2.062 6.28 6.28 0 0 1-.527-2.55 5.365 5.365 0 0 1 1.54-3.884 5.431 5.431 0 0 1 4.073-1.585 6.318 6.318 0 0 1 4.97 2.087 9.243 9.243 0 0 1 2.254 5.048l.923.29 5.142-4.017Zm25.638 10.134a5.335 5.335 0 0 0-1.977-1.982 9.526 9.526 0 0 0-2.61-1.017 13.384 13.384 0 0 0-2.992-.316c-1.919-.027-3.827.3-5.629.965a12.229 12.229 0 0 0-4.165 2.55 13.833 13.833 0 0 0-2.742 3.738 17.76 17.76 0 0 0-1.569 4.427 23.095 23.095 0 0 0-.474 4.73c-.006 1.35.185 2.694.566 3.988.37 1.252.945 2.435 1.7 3.502a7.845 7.845 0 0 0 3.099 2.537 10.38 10.38 0 0 0 4.521.938c4.939 0 9.579-2.176 13.92-6.527l-.527-.767-.659-.159c-3.216 2.485-6.187 3.727-8.911 3.727a6.302 6.302 0 0 1-2.939-.675 5.928 5.928 0 0 1-2.099-1.743 10.56 10.56 0 0 1-1.332-2.457 13.18 13.18 0 0 1-.751-2.709c-.14-.873-.21-1.758-.211-2.643a20.85 20.85 0 0 1 .29-3.355c.207-1.235.516-2.45.923-3.634a7.597 7.597 0 0 1 1.872-3.066 4.043 4.043 0 0 1 2.9-1.203 3.878 3.878 0 0 1 3.585 1.957 9.276 9.276 0 0 1 1.16 4.81l.923.37 4.983-2.96a6.701 6.701 0 0 0-.855-3.026Zm9.663 7.863c.134-1.038.368-2.06.699-3.053.303-.965.733-1.883 1.278-2.735a6.119 6.119 0 0 1 2.044-1.915 5.63 5.63 0 0 1 2.913-.753 5.82 5.82 0 0 1 3.15.832 5.495 5.495 0 0 1 2.043 2.272c.477.968.822 1.994 1.027 3.052.217 1.14.324 2.3.317 3.462 0 1.058-.009 1.939-.027 2.643a32.142 32.142 0 0 1-.184 2.538 15.27 15.27 0 0 1-.435 2.456c-.207.71-.476 1.4-.804 2.063a5.178 5.178 0 0 1-1.279 1.717 6.324 6.324 0 0 1-1.872 1.056 7.254 7.254 0 0 1-2.57.423 4.677 4.677 0 0 1-2.703-.82 6.06 6.06 0 0 1-1.884-2.02 12.474 12.474 0 0 1-1.134-2.762 18.325 18.325 0 0 1-.607-2.895 21.954 21.954 0 0 1-.158-2.55 24.262 24.262 0 0 1 .186-3.011Zm-3.269 13.662c1.915 1.744 4.956 2.616 9.122 2.616 1.54.01 3.076-.166 4.574-.529a13.499 13.499 0 0 0 3.978-1.703 11.784 11.784 0 0 0 3.177-2.948 13.761 13.761 0 0 0 2.083-4.387 20.91 20.91 0 0 0 .765-5.865 11.004 11.004 0 0 0-3.612-8.51c-2.198-1.973-5.388-2.96-9.57-2.96-4.183 0-7.628 1.296-10.335 3.885a12.974 12.974 0 0 0-4.06 9.805c0 4.721 1.291 8.254 3.875 10.596h.003Zm41.258-20.93c1.406 0 2.408.282 3.006.846.557.68.909 1.506 1.014 2.38.221 1.03.358 2.079.409 3.132.035.924.053 2.119.053 3.58a450.47 450.47 0 0 1-.039 5.696c-.009.571-.005 1.246.012 2.021.005.579.04 1.157.106 1.73.053.38.123.794.211 1.242.061.377.186.738.369 1.07.158.266.352.507.578.715a4.083 4.083 0 0 0 2.899 1.056c1.319 0 2.83-.67 4.535-2.008a49.618 49.618 0 0 0 4.06-3.78l-.606-.9h-.633a6.427 6.427 0 0 1-3.611 1.402 2.065 2.065 0 0 1-1.53-.555 2.05 2.05 0 0 1-.462-.514 3.798 3.798 0 0 1-.276-1.085 15.326 15.326 0 0 1-.132-2.286c0-.58.031-1.52.092-2.814.049-.92.08-1.84.093-2.762v-1.585c.017-1.71.013-2.893-.013-3.555a25.137 25.137 0 0 0-.304-2.695 4.911 4.911 0 0 0-.817-2.352 5.486 5.486 0 0 0-1.635-1.216 5.733 5.733 0 0 0-2.689-.569c-3.093 0-6.679 1.27-10.756 3.806l-.633-.237a5.015 5.015 0 0 0-.909-2.708c-.519-.68-1.411-1.018-2.676-1.018-.758.01-1.51.138-2.228.383-.835.28-1.632.662-2.374 1.136-.8.502-1.494.97-2.083 1.4-.589.432-1.27.956-2.043 1.573l.975 1.294c.179-.116.36-.23.541-.343.307-.194.575-.352.804-.476.228-.123.501-.268.817-.436.283-.154.579-.283.884-.386.233-.08.477-.124.724-.131.305-.008.606.07.87.224.268.178.47.438.578.74.132.32.246.645.342.977.108.447.17.904.185 1.363.036.6.057 1.084.064 1.453.008.369.012.924.013 1.665v.45c0 1.725-.132 7.01-.395 15.854l.659.37 5.932-1.718c-.176-.756-.308-3.143-.396-7.16-.087-3.928-.13-7.857-.128-11.787 3.058-1.655 5.237-2.483 6.538-2.483l.005.002Zm25.573 9.01a.687.687 0 0 1-.158.028c-.263 0-.395-.096-.396-.29.001-.877.067-1.75.199-2.617a13.6 13.6 0 0 1 .737-2.762c.331-.902.783-1.756 1.345-2.537a6.329 6.329 0 0 1 5.128-2.524 4.136 4.136 0 0 1 3.664 1.825 7.248 7.248 0 0 1 1.239 4.175 1.34 1.34 0 0 1-.883 1.242 43.126 43.126 0 0 1-4.415 1.506c-2.107.62-4.208 1.264-6.301 1.93a.79.79 0 0 0-.158.026l-.001-.002Zm15.66 8.246c-3.165 1.921-5.898 2.881-8.199 2.88a7.503 7.503 0 0 1-4.377-1.294 7.833 7.833 0 0 1-2.754-3.237 10.001 10.001 0 0 1-.884-4.19c11.495-3.575 17.295-5.362 17.401-5.362a1.949 1.949 0 0 0 1.555-2.009 7.543 7.543 0 0 0-.883-3.727 6.446 6.446 0 0 0-2.386-2.47 11.567 11.567 0 0 0-3.256-1.295 16.623 16.623 0 0 0-3.786-.41 15.96 15.96 0 0 0-6.64 1.335 12.736 12.736 0 0 0-4.758 3.567 16.21 16.21 0 0 0-2.755 5.021 17.929 17.929 0 0 0-.949 5.828c0 4.07 1.098 7.116 3.295 9.143 1.986 1.85 4.789 2.775 8.41 2.775a13.57 13.57 0 0 0 5.972-1.454 46.166 46.166 0 0 0 6.393-3.858l-.577-1.03-.822-.212Z" clip-rule="evenodd"/></svg>