<svg width="159" height="36" fill="none" xmlns="http://www.w3.org/2000/svg"><path d="M12.94 22.475v5.027c0 2.514-1.272 3.42-3.293 3.42-2.022 0-3.293-.906-3.293-3.42V8.497c0-2.514 1.272-3.47 3.294-3.47 2.021 0 3.292.956 3.292 3.47v3.77h6.008V8.85C18.948 3.217 15.713 0 9.474 0 3.234 0 0 3.217 0 8.849V27.15C0 32.782 3.235 36 9.474 36c6.239 0 9.474-3.218 9.474-8.85v-4.675H12.94zM36.914.402l6.47 35.196h-6.412l-1.098-6.386h-7.798l-1.098 6.386h-5.834L27.614.402h9.3zM31.89 6.637l-3.004 17.799h6.122l-3.003-17.8h-.115zm34.198 28.96h-6.47c-.346-.905-.578-1.458-.578-4.324v-5.53c0-3.268-1.27-4.475-4.159-4.475h-2.195v14.33H46.33V.402h9.59c6.585 0 9.415 2.665 9.415 8.096v2.765c0 3.62-1.328 5.932-4.159 7.089 3.178 1.256 4.217 3.87 4.217 7.542v5.43c0 1.71.06 2.966.694 4.274zM55.747 5.43h-3.062v10.81h2.483c2.37 0 3.813-.904 3.813-3.72V9.05c0-2.513-.981-3.62-3.235-3.62zM85.453.402l6.47 35.196h-6.412l-1.097-6.386h-7.799l-1.097 6.386h-5.835L76.153.402h9.3zm-5.025 6.235l-3.004 17.799h6.124l-3.004-17.8h-.116zM97.802.402H91.39l6.238 35.196h9.474L113.341.402h-5.834l-4.795 28.708h-.116L97.802.402zm30.776 0l6.47 35.196h-6.412l-1.098-6.386h-7.799l-1.098 6.386h-5.834l6.47-35.196h9.301zm-5.026 6.235l-3.004 17.799h6.124l-3.004-17.8h-.116zm28.92 28.96H159V.403h-5.662v21.066h-.115L146.81.402h-7.971v35.196h5.719V10.105h.115l7.799 25.493z" fill="#9C9C9C"/></svg>