<svg xmlns="http://www.w3.org/2000/svg" width="165" height="31" fill="none"><path fill="#9C9C9C" d="M32.306 9.856c.737 0 1.467-.127 2.149-.374a5.72 5.72 0 0 0 1.821-1.068 4.942 4.942 0 0 0 1.218-1.6c.282-.597.428-1.238.428-1.886 0-.648-.146-1.289-.428-1.887a4.942 4.942 0 0 0-1.218-1.6A5.72 5.72 0 0 0 34.454.375 6.291 6.291 0 0 0 32.306 0a6.29 6.29 0 0 0-2.147.374 5.72 5.72 0 0 0-1.822 1.068 4.942 4.942 0 0 0-1.217 1.6 4.415 4.415 0 0 0-.428 1.886c0 .647.145 1.289.428 1.887a4.942 4.942 0 0 0 1.217 1.599 5.72 5.72 0 0 0 1.822 1.068 6.29 6.29 0 0 0 2.147.374Zm-26.204 0a6.29 6.29 0 0 0 2.148-.374c.681-.248 1.3-.61 1.822-1.068a4.94 4.94 0 0 0 1.217-1.6c.282-.597.428-1.239.428-1.886 0-.647-.146-1.289-.428-1.887a4.94 4.94 0 0 0-1.217-1.599A5.718 5.718 0 0 0 8.25.374 6.29 6.29 0 0 0 6.102 0a6.29 6.29 0 0 0-2.148.374c-.68.247-1.3.61-1.821 1.068a4.942 4.942 0 0 0-1.218 1.6 4.416 4.416 0 0 0-.428 1.886c0 .648.146 1.289.428 1.887a4.942 4.942 0 0 0 1.218 1.6c.521.457 1.14.82 1.821 1.067a6.29 6.29 0 0 0 2.148.374Zm77.319-8.652c.865 0 1.575.217 2.13.651.556.434.834 1.004.834 1.71V27.9c0 .733-.262 1.316-.788 1.75-.523.434-1.219.651-2.083.651-.865 0-1.559-.217-2.085-.65-.525-.435-.787-1.018-.787-1.75v-1.018c-.68 1.112-1.668 1.98-2.965 2.604-1.266.624-2.717.936-4.354.936-1.946 0-3.69-.434-5.233-1.302-1.514-.868-2.702-2.089-3.567-3.663-.834-1.6-1.25-3.431-1.25-5.493 0-2.062.416-3.866 1.25-5.413.865-1.546 2.053-2.74 3.567-3.581 1.513-.841 3.257-1.262 5.233-1.262 1.637 0 3.088.299 4.355.896 1.234.57 2.25 1.448 2.917 2.523V3.483c0-.678.247-1.221.74-1.628.527-.434 1.221-.651 2.086-.651Zm-8.57 25.272c1.854 0 3.274-.556 4.262-1.669 1.019-1.112 1.529-2.7 1.529-4.761 0-2.062-.51-3.636-1.529-4.72-.988-1.113-2.392-1.67-4.215-1.67-1.852 0-3.289.543-4.307 1.629-1.02 1.085-1.529 2.645-1.529 4.68 0 2.062.51 3.662 1.529 4.802 1.018 1.14 2.439 1.709 4.26 1.709Zm27.818 3.947c-2.315 0-4.353-.42-6.113-1.261-1.73-.841-3.073-2.048-4.03-3.622-.957-1.574-1.436-3.405-1.436-5.494s.478-3.907 1.436-5.453c.957-1.574 2.3-2.781 4.03-3.622 1.76-.841 3.798-1.262 6.113-1.262 2.317 0 4.339.42 6.068 1.262 1.733.817 3.14 2.08 4.03 3.622.957 1.546 1.437 3.364 1.437 5.453 0 2.09-.48 3.92-1.437 5.494-.89 1.541-2.297 2.805-4.03 3.622-1.729.84-3.752 1.261-6.068 1.261Zm-.045-3.947c1.884 0 3.319-.543 4.307-1.628.989-1.085 1.483-2.686 1.483-4.802 0-2.089-.494-3.676-1.483-4.761-.988-1.113-2.409-1.669-4.262-1.669-1.851 0-3.289.556-4.306 1.669-.988 1.085-1.483 2.672-1.483 4.761 0 2.116.494 3.717 1.483 4.802.988 1.085 2.408 1.628 4.261 1.628Zm35.534-16.685c.865 0 1.56.217 2.084.65.526.435.788 1.018.788 1.75v16.075c0 3.12-.988 5.48-2.964 7.082-1.977 1.6-4.894 2.4-8.755 2.4-3.365 0-6.175-.555-8.429-1.668-1.142-.597-1.714-1.316-1.714-2.157 0-.597.155-1.071.463-1.424.34-.353.772-.53 1.297-.53.279 0 .618.055 1.02.164.4.135.818.285 1.249.447.967.361 1.957.674 2.965.936.896.217 1.915.326 3.057.326 4.045 0 6.068-1.736 6.068-5.21v-2.604c-.68 1.113-1.668 1.98-2.964 2.605-1.297.597-2.779.895-4.447.895-1.977 0-3.736-.407-5.281-1.22a9.246 9.246 0 0 1-3.566-3.5c-.865-1.493-1.297-3.215-1.297-5.169 0-1.953.418-3.676 1.251-5.168a8.798 8.798 0 0 1 3.612-3.5c1.545-.841 3.304-1.262 5.281-1.262 1.668 0 3.15.312 4.447.936 1.263.568 2.298 1.463 2.964 2.564v-1.058c0-.705.263-1.275.787-1.71.525-.433 1.221-.65 2.084-.65Zm-8.753 15.79c1.853 0 3.288-.53 4.307-1.587 1.05-1.059 1.575-2.51 1.575-4.355 0-1.872-.525-3.337-1.575-4.395-1.019-1.058-2.454-1.587-4.307-1.587-1.822 0-3.259.529-4.308 1.587-1.049 1.058-1.575 2.523-1.575 4.395 0 1.845.526 3.296 1.575 4.355 1.049 1.058 2.486 1.587 4.308 1.587Zm25.82 4.842c-3.365 0-6.082-.583-8.151-1.75-.988-.515-1.482-1.248-1.482-2.197 0-.543.169-.977.508-1.302.341-.353.757-.53 1.251-.53.525 0 1.251.218 2.178.652.988.407 1.883.719 2.686.936.834.217 1.883.325 3.149.325 1.297 0 2.301-.19 3.011-.57.741-.38 1.111-.908 1.111-1.587 0-.46-.153-.827-.463-1.098-.278-.272-.802-.516-1.574-.733-.742-.244-1.884-.515-3.428-.814-2.748-.488-4.725-1.18-5.929-2.075-1.173-.895-1.759-2.13-1.759-3.703 0-1.194.4-2.266 1.204-3.216.802-.976 1.898-1.722 3.288-2.238 1.42-.542 3.026-.814 4.817-.814 1.297 0 2.548.15 3.752.448 1.149.25 2.244.662 3.243 1.22.988.543 1.482 1.262 1.482 2.158 0 .542-.17 1.004-.51 1.383-.339.353-.757.53-1.251.53-.339 0-.68-.055-1.019-.163a30.97 30.97 0 0 1-1.204-.57c-.896-.407-1.667-.705-2.316-.895-.649-.217-1.451-.326-2.408-.326-1.143 0-2.054.204-2.733.61-.649.407-.973.964-.973 1.669 0 .678.34 1.194 1.02 1.546.679.353 1.991.706 3.936 1.059 2.07.38 3.69.813 4.864 1.302 1.173.488 2.006 1.099 2.5 1.831.526.733.788 1.669.788 2.808 0 1.845-.88 3.324-2.639 4.436-1.73 1.112-4.047 1.668-6.949 1.668Z"/></svg>