<svg width="168" height="36" viewBox="0 0 168 36" fill="none" xmlns="http://www.w3.org/2000/svg">
<path d="M55.4609 36V0H45.2228L23.8159 27.7784L20.2024 23.7405C26.6628 22.8649 30.2763 17.8054 30.2763 12.4054C30.2763 7.24865 27.1008 2.91892 22.8304 1.26486C20.6952 0.437838 17.5197 0 13.304 0H0V36H9.90959V24.373H10.0191L19.3812 36H29.8383L33.397 30.7946H45.1133V36H55.4609ZM9.90959 18.0973V8.07568H13.8515C17.7387 8.07568 20.3667 9.82703 20.3667 12.9405C20.3667 16.2486 17.903 18.0973 13.7968 18.0973H9.90959ZM45.1133 23.4973H38.3244L45.0038 13.5243H45.1133V23.4973ZM96.9858 36V0H87.0762L87.5142 22.7676L71.7465 0H62.8223V36H72.7319L72.4582 14.0108L88.007 36H96.9858ZM126.867 36V27.9243H114.275V21.7459H126.484V13.6703H114.275V8.07568H126.867V0H104.366V36H126.867ZM168 36L153.71 17.9513L167.124 0H156.284L144.841 16.2H144.732V0H134.384V36H144.732V20.4324H144.841L155.9 36H168Z" fill="#9C9C9C"/>
</svg>
