<svg width="159" height="36" viewBox="0 0 159 36" fill="none" xmlns="http://www.w3.org/2000/svg">
<path d="M12.9403 22.4748V27.5021C12.9403 30.0158 11.6683 30.9222 9.64676 30.9222C7.62519 30.9222 6.35432 30.0158 6.35432 27.5021V8.49687C6.35432 5.9832 7.62632 5.02735 9.64789 5.02735C11.6695 5.02735 12.9403 5.9832 12.9403 8.49687V12.2679H18.9483V8.84876C18.9483 3.21746 15.7126 0 9.47413 0C3.23451 0 0 3.21746 0 8.84876V27.1502C0 32.7816 3.23451 36 9.47413 36C15.7126 36 18.9483 32.7816 18.9483 27.1502V22.4748H12.9403ZM36.9141 0.402306L43.3843 35.5977H36.972L35.8738 29.2122H28.076L26.9778 35.5977H21.1436L27.6138 0.402306H36.9141ZM31.8886 6.63657L28.8846 24.4359H35.0073L32.0044 6.63558H31.8897L31.8886 6.63657ZM66.0872 35.5977H59.6171C59.2707 34.6923 59.039 34.1387 59.039 31.2731V25.7427C59.039 22.4748 57.7681 21.2679 54.88 21.2679H52.6847V35.5977H46.3303V0.402306H55.9203C62.5052 0.402306 65.3354 3.06722 65.3354 8.49786V11.2626C65.3354 14.8824 64.0066 17.1954 61.1764 18.3519C64.3541 19.6082 65.3933 22.2227 65.3933 25.8939V31.3236C65.3933 33.0336 65.4523 34.29 66.0872 35.5977ZM55.7465 5.42965H52.6847V16.2405H55.1685C57.5376 16.2405 58.981 15.3361 58.981 12.5199V9.05041C58.981 6.53674 57.9998 5.42965 55.7465 5.42965ZM85.4534 0.402306L91.9236 35.5977H85.5113L84.4142 29.2122H76.6153L75.5182 35.5977H69.6829L76.1531 0.402306H85.4534ZM80.4279 6.63657L77.4239 24.4359H83.5477L80.5437 6.63558H80.4279V6.63657ZM97.802 0.402306H91.3898L97.6283 35.5977H107.102L113.341 0.402306H107.507L102.712 29.1104H102.596L97.802 0.402306ZM128.578 0.402306L135.048 35.5977H128.636L127.538 29.2122H119.739L118.641 35.5977H112.807L119.277 0.402306H128.578ZM123.552 6.63657L120.548 24.4359H126.672L123.668 6.63558H123.552V6.63657ZM152.472 35.5977H159V0.402306H153.338V21.4685H153.223L146.81 0.402306H138.839V35.5977H144.558V10.1051H144.673L152.472 35.5977Z" fill="#9C9C9C"/>
</svg>
