<svg xmlns="http://www.w3.org/2000/svg" width="158" height="50" fill="none"><path fill="#9C9C9C" d="m28.317 10.784-5.23 28.298H15.57l1.91-10.218H9.385L7.514 39.082H0l5.273-28.298h7.474l-2.242 11.948h8.096l2.244-11.948h7.472Zm15.415 28.298.25-6.17h-6.934l-2.035 6.17h-7.93l10.671-28.298h13.7l.168 28.298h-7.89Zm-1.702-21.42-3.28 9.983h5.44l.456-9.982-2.616-.001Zm41.838-6.878-5.232 28.298h-7.515l-5.23-15.484-2.824 15.485H55.55l5.273-28.299h7.723l5.15 14.464 2.696-14.464h7.476Zm17.534 0c3.626 0 6.214.865 7.763 2.594 1.136 1.31 1.702 2.948 1.702 4.913 0 .708-.068 1.454-.206 2.24l-1.619 8.765c-.554 2.96-1.911 5.332-4.07 7.114-2.159 1.782-4.955 2.672-8.388 2.672H84.501l5.274-28.298h11.626Zm-2.617 6.132h-2.698L93.139 32.95h3.945c1.3 0 2.31-.328 3.03-.982.748-.682 1.259-1.782 1.535-3.301l1.206-6.446c.104-.52.16-1.046.166-1.573 0-2.49-1.411-3.732-4.236-3.732Zm34.335 22.166h-20.843l5.275-28.298h20.843l-1.162 6.132h-13.37l-.955 5.306h11.044l-1.162 6.13h-11.045l-.83 4.599h13.37l-1.165 6.131Zm23.717 0h-18.934l5.275-28.298h7.473l-4.11 22.167H158l-1.163 6.131Zm-73.323 5.036h72.229L153.486 50H81.258l2.256-5.882ZM7.9 0h79l-2.258 5.882h-79L7.9 0Z"/></svg>