<svg xmlns="http://www.w3.org/2000/svg" width="32" height="33" fill="none"><g clip-path="url(#a)"><path fill="#fff" d="M16 .828c-4.347 0-4.89.02-6.596.095-1.704.08-2.864.345-3.884.737a7.844 7.844 0 0 0-2.835 1.827A7.724 7.724 0 0 0 .84 6.295C.444 7.304.175 8.453.096 10.14.016 11.83 0 12.368 0 16.673s.02 4.842.096 6.532c.08 1.687.348 2.837.744 3.847a7.764 7.764 0 0 0 1.845 2.807 7.832 7.832 0 0 0 2.835 1.827c1.021.391 2.181.66 3.884.737 1.707.08 2.25.095 6.596.095 4.347 0 4.89-.02 6.596-.095 1.703-.079 2.864-.346 3.884-.737a7.872 7.872 0 0 0 2.835-1.827 7.73 7.73 0 0 0 1.845-2.807c.395-1.01.665-2.16.744-3.847.08-1.69.096-2.227.096-6.532 0-4.304-.02-4.842-.096-6.532-.08-1.686-.35-2.838-.744-3.846a7.77 7.77 0 0 0-1.845-2.808A7.804 7.804 0 0 0 26.48 1.66c-1.02-.392-2.181-.66-3.884-.737C20.889.843 20.346.828 16 .828Zm0 2.852c4.27 0 4.78.021 6.467.094 1.56.072 2.406.329 2.969.548.75.286 1.28.63 1.843 1.183a4.89 4.89 0 0 1 1.194 1.823c.219.558.48 1.396.551 2.941.076 1.672.093 2.174.093 6.404s-.02 4.734-.098 6.404c-.082 1.545-.342 2.384-.562 2.94-.298.743-.638 1.268-1.198 1.826a4.997 4.997 0 0 1-1.84 1.183c-.56.216-1.42.475-2.98.545-1.699.075-2.199.093-6.479.093-4.281 0-4.781-.02-6.479-.098-1.561-.08-2.421-.338-2.981-.556-.759-.296-1.28-.633-1.839-1.187a4.808 4.808 0 0 1-1.2-1.822c-.22-.555-.478-1.407-.56-2.951-.06-1.664-.081-2.178-.081-6.397 0-4.22.021-4.735.081-6.418.082-1.545.34-2.396.56-2.95.28-.753.639-1.268 1.2-1.824.559-.553 1.08-.91 1.839-1.185.56-.22 1.401-.477 2.961-.556 1.7-.06 2.2-.08 6.479-.08l.06.04Zm0 4.857c-4.54 0-8.216 3.644-8.216 8.136 0 4.496 3.68 8.137 8.216 8.137 4.54 0 8.216-3.645 8.216-8.137 0-4.496-3.68-8.136-8.216-8.136Zm0 13.418c-2.947 0-5.333-2.364-5.333-5.282s2.386-5.282 5.333-5.282 5.333 2.364 5.333 5.282-2.386 5.282-5.333 5.282Zm10.461-13.74c0 1.05-.861 1.902-1.92 1.902-1.06 0-1.92-.853-1.92-1.901 0-1.049.862-1.9 1.92-1.9a1.912 1.912 0 0 1 1.92 1.9Z"/></g><defs><clipPath id="a"><path fill="#fff" d="M0 .828h32v31.69H0z"/></clipPath></defs></svg>