<svg xmlns="http://www.w3.org/2000/svg" width="32" height="33" fill="none"><path fill="#fff" d="M31.33 8.996a3.973 3.973 0 0 0-1.033-1.785A4.03 4.03 0 0 0 28.5 6.176C26.007 5.509 16 5.509 16 5.509s-10.007 0-12.503.667a4.032 4.032 0 0 0-1.794 1.036A3.975 3.975 0 0 0 .669 8.996C0 11.484 0 16.673 0 16.673s0 5.19.67 7.677c.18.674.537 1.29 1.033 1.785A4.03 4.03 0 0 0 3.5 27.171c2.494.666 12.501.666 12.501.666s10.007 0 12.503-.666a4.029 4.029 0 0 0 1.795-1.036 3.973 3.973 0 0 0 1.034-1.785C32 21.862 32 16.673 32 16.673s0-5.19-.67-7.677ZM12.728 21.384v-9.422l8.364 4.711-8.364 4.711Z"/></svg>