<svg width="52" height="37" fill="none" xmlns="http://www.w3.org/2000/svg"><path d="M36 11a2 2 0 1 1 4 0 2 2 0 0 1-4 0zM48 11a2 2 0 1 1 4 0 2 2 0 0 1-4 0zM36 2a2 2 0 1 1 4 0 2 2 0 0 1-4 0zM48 2a2 2 0 1 1 4 0 2 2 0 0 1-4 0zM36 27a2 2 0 1 1 4 0 2 2 0 0 1-4 0zM24 27a2 2 0 1 1 4 0 2 2 0 0 1-4 0zM36 19a2 2 0 1 1 4 0 2 2 0 0 1-4 0zM24 19a2 2 0 1 1 4 0 2 2 0 0 1-4 0zM24 11a2 2 0 1 1 4 0 2 2 0 0 1-4 0zM24 2a2 2 0 1 1 4 0 2 2 0 0 1-4 0zM12 35a2 2 0 1 1 4 0 2 2 0 0 1-4 0zM12 27a2 2 0 1 1 4 0 2 2 0 0 1-4 0zM12 19a2 2 0 1 1 4 0 2 2 0 0 1-4 0zM12 11a2 2 0 1 1 4 0 2 2 0 0 1-4 0zM12 2a2 2 0 1 1 4 0 2 2 0 0 1-4 0zM0 35a2 2 0 1 1 4 0 2 2 0 0 1-4 0zM0 27a2 2 0 1 1 4 0 2 2 0 0 1-4 0zM0 19a2 2 0 1 1 4 0 2 2 0 0 1-4 0zM0 11a2 2 0 1 1 4 0 2 2 0 0 1-4 0zM0 2a2 2 0 1 1 4 0 2 2 0 0 1-4 0z" fill="#E4A30B"/></svg>