<svg width="52" height="37" fill="none" xmlns="http://www.w3.org/2000/svg"><path d="M36 26a2 2 0 1 0 4 0 2 2 0 0 0-4 0zM48 26a2 2 0 1 0 4 0 2 2 0 0 0-4 0zM36 35a2 2 0 1 0 4 0 2 2 0 0 0-4 0zM48 35a2 2 0 1 0 4 0 2 2 0 0 0-4 0zM36 10a2 2 0 1 0 4 0 2 2 0 0 0-4 0zM24 10a2 2 0 1 0 4 0 2 2 0 0 0-4 0zM36 18a2 2 0 1 0 4 0 2 2 0 0 0-4 0zM24 18a2 2 0 1 0 4 0 2 2 0 0 0-4 0zM24 26a2 2 0 1 0 4 0 2 2 0 0 0-4 0zM24 35a2 2 0 1 0 4 0 2 2 0 0 0-4 0zM12 2a2 2 0 1 0 4 0 2 2 0 0 0-4 0zM12 10a2 2 0 1 0 4 0 2 2 0 0 0-4 0zM12 18a2 2 0 1 0 4 0 2 2 0 0 0-4 0zM12 26a2 2 0 1 0 4 0 2 2 0 0 0-4 0zM12 35a2 2 0 1 0 4 0 2 2 0 0 0-4 0zM0 2a2 2 0 1 0 4 0 2 2 0 0 0-4 0zM0 10a2 2 0 1 0 4 0 2 2 0 0 0-4 0zM0 18a2 2 0 1 0 4 0 2 2 0 0 0-4 0zM0 26a2 2 0 1 0 4 0 2 2 0 0 0-4 0zM0 35a2 2 0 1 0 4 0 2 2 0 0 0-4 0z" fill="#818181" fill-opacity=".3"/></svg>