<svg width="52" height="35" fill="none" xmlns="http://www.w3.org/2000/svg"><path d="M36 10.214c0-1.025.895-1.857 2-1.857s2 .832 2 1.857c0 1.026-.895 1.857-2 1.857s-2-.831-2-1.857zM48 10.214c0-1.025.895-1.857 2-1.857s2 .832 2 1.857c0 1.026-.895 1.857-2 1.857s-2-.831-2-1.857zM36 1.857C36 .831 36.895 0 38 0s2 .831 2 1.857-.895 1.857-2 1.857-2-.831-2-1.857zM48 1.857C48 .831 48.895 0 50 0s2 .831 2 1.857-.895 1.857-2 1.857-2-.831-2-1.857zM36 25.071c0-1.025.895-1.857 2-1.857s2 .832 2 1.857c0 1.026-.895 1.858-2 1.858s-2-.832-2-1.858zM24 25.071c0-1.025.895-1.857 2-1.857s2 .832 2 1.857c0 1.026-.895 1.858-2 1.858s-2-.832-2-1.858zM36 17.643c0-1.026.895-1.857 2-1.857s2 .831 2 1.857-.895 1.857-2 1.857-2-.831-2-1.857zM24 17.643c0-1.026.895-1.857 2-1.857s2 .831 2 1.857-.895 1.857-2 1.857-2-.831-2-1.857zM24 10.214c0-1.025.895-1.857 2-1.857s2 .832 2 1.857c0 1.026-.895 1.857-2 1.857s-2-.831-2-1.857zM24 1.857C24 .831 24.895 0 26 0s2 .831 2 1.857-.895 1.857-2 1.857-2-.831-2-1.857zM12 32.5c0-1.026.895-1.857 2-1.857s2 .831 2 1.857-.895 1.857-2 1.857-2-.831-2-1.857zM12 25.071c0-1.025.895-1.857 2-1.857s2 .832 2 1.857c0 1.026-.895 1.858-2 1.858s-2-.832-2-1.858zM12 17.643c0-1.026.895-1.857 2-1.857s2 .831 2 1.857-.895 1.857-2 1.857-2-.831-2-1.857zM12 10.214c0-1.025.895-1.857 2-1.857s2 .832 2 1.857c0 1.026-.895 1.857-2 1.857s-2-.831-2-1.857zM12 1.857C12 .831 12.895 0 14 0s2 .831 2 1.857-.895 1.857-2 1.857-2-.831-2-1.857zM0 32.5c0-1.026.895-1.857 2-1.857s2 .831 2 1.857-.895 1.857-2 1.857-2-.831-2-1.857zM0 25.071c0-1.025.895-1.857 2-1.857s2 .832 2 1.857c0 1.026-.895 1.858-2 1.858s-2-.832-2-1.858zM0 17.643c0-1.026.895-1.857 2-1.857s2 .831 2 1.857S3.105 19.5 2 19.5s-2-.831-2-1.857zM0 10.214C0 9.19.895 8.357 2 8.357s2 .832 2 1.857c0 1.026-.895 1.857-2 1.857s-2-.831-2-1.857zM0 1.857C0 .831.895 0 2 0s2 .831 2 1.857-.895 1.857-2 1.857-2-.831-2-1.857z" fill="#818181" fill-opacity=".3"/></svg>