<svg width="52" height="37" fill="none" xmlns="http://www.w3.org/2000/svg"><path d="M16 26a2 2 0 1 1-4 0 2 2 0 0 1 4 0zM4 26a2 2 0 1 1-4 0 2 2 0 0 1 4 0zM16 35a2 2 0 1 1-4 0 2 2 0 0 1 4 0zM4 35a2 2 0 1 1-4 0 2 2 0 0 1 4 0zM16 10a2 2 0 1 1-4 0 2 2 0 0 1 4 0zM28 10a2 2 0 1 1-4 0 2 2 0 0 1 4 0zM16 18a2 2 0 1 1-4 0 2 2 0 0 1 4 0zM28 18a2 2 0 1 1-4 0 2 2 0 0 1 4 0zM28 26a2 2 0 1 1-4 0 2 2 0 0 1 4 0zM28 35a2 2 0 1 1-4 0 2 2 0 0 1 4 0zM40 2a2 2 0 1 1-4 0 2 2 0 0 1 4 0zM40 10a2 2 0 1 1-4 0 2 2 0 0 1 4 0zM40 18a2 2 0 1 1-4 0 2 2 0 0 1 4 0zM40 26a2 2 0 1 1-4 0 2 2 0 0 1 4 0zM40 35a2 2 0 1 1-4 0 2 2 0 0 1 4 0zM52 2a2 2 0 1 1-4 0 2 2 0 0 1 4 0zM52 10a2 2 0 1 1-4 0 2 2 0 0 1 4 0zM52 18a2 2 0 1 1-4 0 2 2 0 0 1 4 0zM52 26a2 2 0 1 1-4 0 2 2 0 0 1 4 0zM52 35a2 2 0 1 1-4 0 2 2 0 0 1 4 0z" fill="#E4A30B"/></svg>