<svg xmlns="http://www.w3.org/2000/svg" width="32" height="32" fill="none"><g clip-path="url(#a)"><path fill="#F6AD09" d="M25.332 9.333H24.24l-2.267-6.24a2.678 2.678 0 0 0-2.506-1.76h-2.134c-.733 0-1.333.6-1.333 1.333 0 .734.6 1.334 1.333 1.334h2.134l1.946 5.333H15L14.519 8h.12c.733 0 1.333-.6 1.333-1.334 0-.733-.6-1.333-1.333-1.333h-3.973c-.734 0-1.334.6-1.334 1.333 0 .734.6 1.334 1.334 1.334h1l2.426 6.666H13.2c-.587-2.973-3.08-5.173-6.2-5.32-3.733-.186-7 2.92-7 6.654 0 3.733 2.933 6.666 6.667 6.666 3.28 0 5.933-2.253 6.533-5.333h5.6c.587 2.973 3.08 5.173 6.2 5.32 3.733.173 7-2.92 7-6.667 0-3.72-2.933-6.653-6.667-6.653ZM8 17.333h2.427c-.56 1.64-2.134 2.773-4.027 2.653-1.987-.12-3.64-1.8-3.733-3.8-.094-2.333 1.693-4.186 4-4.186a3.932 3.932 0 0 1 3.76 2.666H7.999c-.733 0-1.333.6-1.333 1.334 0 .733.6 1.333 1.333 1.333Zm10.8-2.667h-1.867L15.96 12h4.04a6.313 6.313 0 0 0-1.2 2.666ZM25.172 20c-2.053-.08-3.786-1.827-3.84-3.894-.026-1.28.52-2.4 1.4-3.146l.827 2.266a1.33 1.33 0 0 0 1.707.8 1.33 1.33 0 0 0 .8-1.706l-.84-2.307.013-.013a3.96 3.96 0 0 1 4.093 4c0 2.293-1.84 4.08-4.16 4Zm-10.506 6.666H9.332l8 4V28h5.334l-8-4v2.666Z"/></g><defs><clipPath id="a"><path fill="#fff" d="M0 0h32v32H0z"/></clipPath></defs></svg>