<svg xmlns="http://www.w3.org/2000/svg" width="31" height="31" fill="none"><path fill="#F6AD09" d="M15.153 10.106a5.051 5.051 0 0 0-5.053 5.052 5.051 5.051 0 0 0 5.053 5.053 5.051 5.051 0 0 0 5.052-5.053 5.051 5.051 0 0 0-5.052-5.052Zm11.292 3.79a11.36 11.36 0 0 0-10.03-10.03v-1.34c0-.694-.568-1.263-1.262-1.263-.695 0-1.264.569-1.264 1.264v1.338a11.361 11.361 0 0 0-10.03 10.03H2.522c-.695 0-1.263.569-1.263 1.263 0 .695.568 1.263 1.263 1.263H3.86a11.361 11.361 0 0 0 10.03 10.03v1.339c0 .695.568 1.263 1.263 1.263.694 0 1.263-.568 1.263-1.263v-1.339a11.361 11.361 0 0 0 10.03-10.03h1.338c.695 0 1.264-.568 1.264-1.263 0-.694-.569-1.263-1.264-1.263h-1.339ZM15.153 24a8.836 8.836 0 0 1-8.843-8.842 8.836 8.836 0 0 1 8.843-8.842 8.836 8.836 0 0 1 8.842 8.842A8.836 8.836 0 0 1 15.153 24Z"/></svg>