<svg xmlns="http://www.w3.org/2000/svg" width="31" height="31" fill="none"><path fill="#F6AD09" d="M22.727 10.106h-1.263V7.579a6.318 6.318 0 0 0-6.316-6.316A6.318 6.318 0 0 0 8.832 7.58v2.527H7.57a2.534 2.534 0 0 0-2.526 2.526v12.632a2.534 2.534 0 0 0 2.526 2.526h15.158a2.534 2.534 0 0 0 2.527-2.526V12.632a2.534 2.534 0 0 0-2.527-2.526Zm-7.579 11.368a2.534 2.534 0 0 1-2.526-2.526 2.534 2.534 0 0 1 2.526-2.527 2.534 2.534 0 0 1 2.527 2.527 2.534 2.534 0 0 1-2.527 2.526Zm-3.79-11.368V7.579a3.784 3.784 0 0 1 3.79-3.79 3.784 3.784 0 0 1 3.79 3.79v2.527h-7.58Z"/></svg>