<svg xmlns="http://www.w3.org/2000/svg" width="31" height="31" fill="none"><path fill="#F6AD09" d="M24.576 12.632a1.263 1.263 0 0 0-.089 1.263c.314.731.535 1.5.657 2.286a10.106 10.106 0 0 1-.871 5.975 1.263 1.263 0 0 1-1.125.67H7.17a1.263 1.263 0 0 1-1.124-.683 10.106 10.106 0 0 1 10.37-14.488 9.715 9.715 0 0 1 2.666.707 1.263 1.263 0 0 0 1.263-.088 1.263 1.263 0 0 0-.215-2.223A12.632 12.632 0 0 0 4.226 24a2.527 2.527 0 0 0 2.173 1.262h17.494A2.525 2.525 0 0 0 26.091 24a12.632 12.632 0 0 0 .695-11.23 1.264 1.264 0 0 0-2.21-.138Z"/><path fill="#F6AD09" d="M13.372 15.903a2.528 2.528 0 0 0 3.575 3.575l7.15-10.724-10.725 7.15Z"/></svg>